<?xml version="1.0"?><svg style="stroke-width: 0px; background-color: green;" width="542.22351" height="510.42651" xmlns="http://www.w3.org/2000/svg">
 <metadata id="metadata3">celtic-vine-cornerorner border ornament, a vine in the form of a Celtic knotcelticornamentaldecorationdecorativebordercornershapeflourishOpen Clip Art LibrarySteve DoonanSteve Doonanimage/svg+xmlen</metadata>

 <g>
  <title>Layer 1</title>
  <g display="inline" id="layer2">
   <path fill="#000000" fill-rule="evenodd" stroke-miterlimit="4" id="path7339" d="m41.382851,33.611298l9.90625,-2.468748c14.625389,-20.9744 56.670258,-31.856279 89.562492,5.937498l6.46875,-3.6875c-27.790947,-34.172518 -78.877365,-40.621798 -105.937492,0.21875zm-6.944832,38.872253l-1.166389,-7.588257c-47.378459,-20.217323 -14.875618,-68.461596 14.798721,-49.065245l5.634209,-4.763779c-40.195667,-28.807642 -84.289099,37.454153 -19.266541,61.41728zm123.476074,-28.216003l-4.90625,3.28125c75.961731,66.964523 116.155945,-66.193178 192.5625,-12.09375c-75.605988,-62.424198 -116.532654,68.432617 -187.65625,8.8125zm-53.656242,16.0625l1.024796,6.49173c38.68354,-5.578247 83.897255,-71.581638 137.526222,-29.105637l4.549835,-3.97448c-56.781555,-49.000892 -109.1539,20.993256 -143.100853,26.588387zm-38.625,-38.624998l-4.84375,4.34375c9.996407,10.387373 10.213287,21.030989 11.650742,37.920965l7.193008,-1.327217c-0.886299,-15.138634 -2.504829,-29.79837 -14,-40.937498zm12.144287,13.446699l1.601143,6.269302c13.613609,4.496765 18.04306,16.40403 14.50457,38.408997l6.284012,-0.350197c3.714539,-23.099861 0.570549,-39.330696 -22.389725,-44.328102zm-39.797787,17.261032c-3.33448,12.645706 -1.36652,41.171478 30.091,41.323517l1.15625,-6.5c-25.588593,-1.017418 -27.093773,-23.306686 -22.09375,-38.90625l-9.1535,4.082733zm-26.409,10.573517c-36.96279,69.940155 103.088852,89.263382 29.441597,195.59375l2.245903,6.28125c82.637985,-109.47757 -57.00327,-136.944382 -25.5625,-196.875l-6.125,-5zm78.363983,0.471497c-11.954712,4.37001 -27.349663,5.606377 -40.012917,5.236237l1.194901,5.670013c9.536224,1.275352 31.204941,-1.604538 39.454033,-4.627747l-0.636017,-6.278503zm-16.832733,13.872253c-0.182938,20.983147 1.144737,41.574478 -24.6875,63.59375l3.84375,5.34375c26.054962,-20.618011 27.497787,-39.586075 27.3125,-70.000938l-6.46875,1.063438zm9.46875,8.75l0.426483,6.89798c43.571289,-12.031578 45.945061,12.045547 38.354767,20.25827c-7.590286,8.212723 -24.994438,1.821487 -22.625,-19.09375l-6.07077,0.369492c-3.8507,25.166306 20.611267,37.605026 34.22702,24.126404c13.542717,-13.406326 3.471245,-46.657173 -44.3125,-32.558395zm-44.9375,63.78125c-55.53414,54.35997 15.592911,130.911194 15.109306,173.993774c-0.480659,42.818787 -29.027905,59.97464 -29.855038,97.017792c-0.829029,37.128418 23.824764,66.106781 22.790768,77.723236c-1.033997,11.616394 -16.029106,12.9776 -15.762966,-2.406128c-3.343319,19.483856 18.622761,18.168732 18.220379,0.931946c-0.402,-17.220825 -21.508099,-38.522522 -20.85799,-75.158966c0.661819,-37.296539 28.8894,-48.455902 30.464848,-98.10788c1.575462,-49.652008 -68.151446,-116.042831 -15.234306,-169.681274l-4.875,-4.3125zm26.282928,-114.842369c-17.544006,0.049408 -33.88578,7.57354 -42.578999,17.365402l5.92107,4.758217c7.199928,-7.039238 19.513153,-16.139618 39,-15.46875l-2.342072,-6.654869zm462.482231,15.4161c-16.347809,-0.917984 -40.681335,-21.984617 -97.033508,-21.529898c-56.352173,0.45472 -122.680206,52.935163 -168.950409,15.331167l-3.65625,4.40625c49.638855,41.69236 117.538818,-14.456924 172.606659,-14.831169c55.06781,-0.374237 76.367645,18.048668 96.471008,19.5299c20.103394,1.481232 24.169922,-22.190619 -1.798828,-19.584961c22.447876,1.37616 18.709167,17.596687 2.361328,16.678711zm-494.906139,218.818726c0,0 -13.46756,22.533539 -14.705299,35.334747c-1.239712,12.821655 -2.017342,24.873383 8.627708,35.800964c-6.336609,-11.474091 -6.710491,-15.965881 -5.541611,-31.522217c1.168892,-15.556335 14.66848,-33.498505 14.66848,-33.498505l-3.049278,-6.11499z"/>
  </g>
  <g display="inline" id="layer3">
   <g id="g15781">
    <path fill="#000000" fill-rule="evenodd" stroke-width="1px" id="path15756" d="m193.998322,61.047577c6.852203,-1.430481 10.774536,-4.029579 11.24353,-6.386642c-0.496094,-3.114967 -7.43512,-1.013184 -6.216858,-9.610046c0.880432,-6.213058 4.522705,-1.699783 8.103668,0.058296c0.360413,-2.442497 -14.521606,-8.871918 -7.314514,-13.038788c13.730255,-3.371355 13.045868,4.433472 14.4422,11.532242c0.192291,-2.332474 1.046112,-3.623009 0.249512,-6.047028c3.535217,2.185555 5.129669,2.244217 5.978119,6.756371c1.545197,8.2174 -13.783356,17.920197 -26.485657,16.735596z"/>
    <path fill="#ffffff" fill-rule="evenodd" stroke-width="1px" id="path15758" d="m203.846313,58.221207c5.55603,-1.825851 15.084747,-13.869316 0.244171,-23.877815c17.762634,9.171997 5.80899,22.938316 -0.244171,23.877815z"/>
   </g>
   <g transform="matrix(1.05817, 0, 0, 1.05817, -15.7428, 1.287)" id="g15750">
    <path fill="#000000" fill-rule="evenodd" stroke-width="1px" id="path15748" d="m179.191605,19.45982c-1.766525,4.78508 -6.347885,7.931301 -10.910187,9.19397c5.14653,-3.717751 9.439163,-7.232601 6.497086,-11.277939c-2.083969,-2.942093 -9.469696,6.168999 -12.749008,1.961369c-3.220184,-4.131802 -0.351624,-4.169762 2.696915,-6.987431c-2.607681,-1.168919 -13.153961,11.266502 -15.691071,1.716221c-2.45726,-9.2498 8.347397,-9.772501 16.671768,-8.70363c-2.536545,-0.971569 -4.856903,-1.072029 -7.84552,-0.980721c-0.995331,-4.33091 3.550781,-6.779219 10.052078,-5.026039c9.390457,2.532299 13.058731,15.280512 11.277939,20.1042z"/>
    <path fill="#ffffff" fill-rule="evenodd" stroke-width="1px" id="path15746" d="m173.491699,25.26358c10.343048,-11.27039 -2.002533,-21.59095 -21.139557,-13.496391c20.432281,-11.833189 33.799866,3.812992 21.139557,13.496391z"/>
   </g>
   <g transform="matrix(-0.797937, -0.770316, 0.736096, -0.835031, 171.008, 409.981)" id="g15770">
    <path fill="#000000" fill-rule="evenodd" stroke-width="1px" id="path15772" d="m268.267883,92.461769c-12.269226,-0.557114 -10.958618,-8.78434 -7.110596,-13.089699c-0.496063,-3.114975 -9.058212,-1.686615 -7.839966,-10.283478c0.880447,-6.213055 4.522736,-1.699783 8.103699,0.058296c0.360413,-2.442497 -12.849579,-9.412491 -5.642487,-13.579369c8.485443,-2.540531 12.927704,5.2104 13.582062,11.323853c0.192291,-2.332474 0.081757,-3.401314 1.671204,-4.686893c5.019867,1.984852 2.350739,8.869205 -0.9953,11.686596c-4.504791,3.79303 -17.992126,14.106735 -1.768616,18.570694z"/>
    <path fill="#ffffff" fill-rule="evenodd" stroke-width="1px" id="path15776" d="m265.341461,76.37426c4.138855,-6.692497 -0.369354,-14.994652 -5.747223,-17.346931c7.612946,2.32914 10.427582,11.573212 5.747223,17.346931z"/>
   </g>
   <g transform="matrix(1.114, -0.558282, -0.601987, -1.05626, -147.447, 648.805)" id="g15787">
    <path fill="#000000" fill-rule="evenodd" stroke-width="1px" id="path15789" d="m231.002274,125.624542c-12.703766,-5.951706 -11.63945,-16.263687 -7.791412,-20.569046c0.489548,-3.045639 -11.466034,-7.23909 -5.046371,-12.901108c1.102188,2.501526 1.609009,3.785355 2.78212,3.126648c2.427917,-1.363297 -6.5793,-5.375351 -5.050903,-10.055168c2.107864,-6.454185 15.06752,-1.897278 15.616776,7.665886c0.667358,-1.993271 0.221725,-2.737427 -0.402893,-4.476059c5.284637,3.68956 4.495499,10.931534 0.4245,12.559433c-6.229462,2.491028 -17.153305,12.129318 -0.531815,24.649414z"/>
    <path fill="#ffffff" fill-rule="evenodd" stroke-width="1px" id="path15791" d="m224.944138,103.980606c2.197433,-5.379288 5.099121,-11.874481 -5.515182,-18.722557c11.254211,4.988922 9.434219,11.807411 5.515182,18.722557z"/>
   </g>
   <g transform="matrix(-0.739909, -0.625125, -0.654893, 0.870696, 526.359, 146.777)" id="g15793">
    <path fill="#000000" fill-rule="evenodd" stroke-width="1px" id="path15795" d="m233.323853,30.396444c3.366119,0.53257 4.844513,0.852291 8.88501,2.515844c-4.864441,-0.987963 -10.524811,-3.548454 -10.474457,1.268539c0.029541,2.827469 -6.331085,10.414478 -11.293335,5.559929c-3.398071,-3.670658 0.166107,-4.93441 1.866821,-6.310398c-2.607697,-1.168922 -10.022583,9.655148 -14.860962,1.039188c-5.301636,-9.440912 8.637665,-10.567232 14.937164,-8.886791c-2.53653,-0.971571 -7.309204,-0.378151 -6.249054,-5.35174c2.31546,-1.71759 6.383331,-1.362862 11.029205,1.583078c6.305664,3.998411 5.122528,5.763311 6.159607,8.58235z"/>
    <path fill="#ffffff" fill-rule="evenodd" stroke-width="1px" id="path15797" d="m231.384399,30.694784c-2.886993,-0.85754 -10.717987,-3.546268 -21.84549,1.637922c10.381714,-6.346411 17.411011,-3.196211 21.84549,-1.637922z"/>
   </g>
   <g transform="matrix(-0.146052, -0.787728, -1.18067, 0.172074, 534.752, 209.917)" id="g15799">
    <path fill="#000000" fill-rule="evenodd" stroke-width="1px" id="path15801" d="m224.502121,48.86853c2.619598,0.900795 13.515854,-1.060585 13.95929,13.426544c-3.258026,-11.854698 -7.727264,-10.259048 -13.92746,-11.143173c0.723892,2.931732 -4.467789,8.95401 -11.689056,8.209801c-3.134338,-3.005989 -0.403275,-4.863968 0.96936,-6.849609c-2.607681,-1.168922 -8.670242,8.707581 -14.860962,1.039192c-7.137238,-8.84082 8.637665,-10.56723 14.937164,-8.886791c-2.53653,-0.971569 -7.309204,-0.378147 -6.249069,-5.351742c2.315475,-1.71759 6.383347,-1.362858 11.029236,1.583084c6.305649,3.998417 4.794434,5.153667 5.831497,7.972694z"/>
    <path fill="#ffffff" fill-rule="evenodd" stroke-width="1px" id="path15803" d="m222.372894,49.190353c-5.791107,-0.223747 -11.580811,-1.518242 -20.628845,1.853821c9.712204,-4.63541 13.581375,-2.648121 20.628845,-1.853821z"/>
   </g>
   <g id="g15805">
    <path fill="#000000" fill-rule="evenodd" stroke-width="1px" id="path15807" d="m23.260361,184.648376c-0.740463,17.968933 2.943909,27.753448 14.928497,27.085358c4.110168,-3.422058 -6.719467,-3.605988 -3.913742,-11.145462c1.800385,-4.837967 5.44397,-2.160416 9.48555,0.518906c0.82103,-2.135406 -14.060974,-6.415253 -6.700348,-13.192322c10.352356,-5.060303 13.967117,4.433472 15.363449,11.532242c0.806473,-1.41124 1.35321,-3.008835 0.556595,-5.432877c3.228134,0.803696 4.700607,2.633026 4.442719,6.602844c-0.52597,8.096512 -8.357391,14.797394 -18.381241,14.731293c-11.228378,-0.074005 -21.153381,-8.922668 -15.781479,-30.699982z"/>
    <path fill="#ffffff" fill-rule="evenodd" stroke-width="1px" id="path15809" d="m39.403549,212.683807c8.824661,-0.64679 14.114426,-16.91217 1.318939,-22.342422c15.347366,4.49086 7.769455,23.165939 -1.318939,22.342422z"/>
   </g>
   <g transform="matrix(-0.185991, 0.982551, -0.982551, -0.185991, 170.443, 150.354)" id="g15811">
    <path fill="#000000" fill-rule="evenodd" stroke-width="1px" id="path15813" d="m205.608673,114.435928c2.901077,-2.358337 4.100647,-3.311905 5.716034,-5.33931c-3.276657,-0.557022 -8.537689,-7.550827 -5.479248,-11.547501c3.678986,-4.807556 4.238113,2.104538 6.744873,0.315521c0.379303,-2.446075 -14.296982,-4.38266 -7.900711,-12.146484c8.346558,-6.571487 15.837326,3.279991 15.827927,9.707245c0.841537,-1.517761 0.793854,-2.63765 0.103729,-4.456741c5.374557,1.368576 5.515915,4.575211 6.176865,8.906509c0.734177,4.811096 -3.402847,9.746262 -8.188171,9.897461c-1.872299,0.059158 -3.073486,0.119812 -6.178833,-0.463364c-1.56395,0.532486 -3.405594,3.240799 -6.822464,5.126663z"/>
    <path fill="#ffffff" fill-rule="evenodd" stroke-width="1px" id="path15815" d="m214.062653,107.73262c1.892761,-5.376816 4.289001,-14.099411 -5.723648,-20.091599c11.321198,5.565094 8.530746,14.919632 5.723648,20.091599z"/>
   </g>
  </g>
 </g>
</svg>
